<svg version="1.1" xmlns="http://www.w3.org/2000/svg" xmlns:xlink="http://www.w3.org/1999/xlink" width="699.50776" height="531.51395" viewBox="0,0,699.50776,531.51395"><g transform="translate(109.75388,85.75698)"><g data-paper-data="{&quot;isPaintingLayer&quot;:true}" fill-rule="nonzero" stroke-width="0" stroke-linecap="butt" stroke-linejoin="miter" stroke-miterlimit="10" stroke-dasharray="" stroke-dashoffset="0" style="mix-blend-mode: normal"><g><path d="M-87.95931,24.76106l35.58475,-35.58475l35.58475,35.58475l-35.58475,35.58475z" fill="#898989" stroke="#000000"/><path d="M297.13825,-18.51885l91.33097,-42.4047l-3.00677,100.07825z" fill="#525252" stroke="#000000"/><path d="M-109.75388,214.72934c0,-30.01538 24.33227,-54.34765 54.34765,-54.34765c30.01538,0 54.34765,24.33228 54.34765,54.34765c0,30.01538 -24.33227,54.34765 -54.34765,54.34765c-30.01538,0 -54.34765,-24.33227 -54.34765,-54.34765z" fill="#333333" stroke="none"/><path d="M255.96423,239.50589l83.04837,70.61468l-70.61468,83.04837l-83.04837,-70.61468z" fill="#333333" stroke="#000000"/><path d="M84.87483,46.22358l78.71722,62.79415l-90.89431,41.98716z" fill="#484848" stroke="#000000"/><path d="M1.05218,-66.64421c0,-10.55569 8.55707,-19.11276 19.11276,-19.11276c10.55569,0 19.11276,8.55708 19.11276,19.11276c0,10.55569 -8.55708,19.11276 -19.11276,19.11276c-10.55569,0 -19.11276,-8.55707 -19.11276,-19.11276z" fill="#4b4b4b" stroke="none"/><path d="M426.93474,364.60018c0,-44.82166 36.33514,-81.15681 81.1568,-81.15681c44.82166,0 81.1568,36.33515 81.1568,81.15681c0,44.82166 -36.33514,81.1568 -81.1568,81.1568c-44.82166,0 -81.1568,-36.33514 -81.1568,-81.1568z" fill="#5c5c5c" stroke="none"/><path d="M-36.55386,323.59305l108.65619,-8.79195l8.79195,108.65618l-108.65619,8.79195z" fill="#666666" stroke="#000000"/><path d="M553.67203,88.75983l3.22317,141.76028l-127.44335,-60.30669z" fill="#6c6c6c" stroke="#000000"/><path d="M226.24907,127.91365c0,-45.2447 36.67807,-81.92278 81.92277,-81.92278c45.2447,0 81.92278,36.67808 81.92278,81.92278c0,45.2447 -36.67808,81.92278 -81.92278,81.92278c-45.2447,0 -81.92277,-36.67808 -81.92277,-81.92278z" fill="#626262" stroke="none"/><path d="M510.16567,-2.56267c0,-21.97768 17.81644,-39.79411 39.79412,-39.79411c21.97768,0 39.7941,17.81643 39.7941,39.79411c0,21.97768 -17.81642,39.79411 -39.7941,39.79411c-21.97768,0 -39.79412,-17.81643 -39.79412,-39.79411z" fill="#353535" stroke="none"/></g></g></g></svg>